<?xml version="1.0" encoding="utf-8"?>
<!-- Generator: Adobe Illustrator 27.0.1, SVG Export Plug-In . SVG Version: 6.00 Build 0)  -->
<svg version="1.1" id="Layer_1" xmlns="http://www.w3.org/2000/svg" xmlns:xlink="http://www.w3.org/1999/xlink" x="0px" y="0px"
	 viewBox="0 0 1920 1080" style="enable-background:new 0 0 1920 1080;" xml:space="preserve">
<style type="text/css">
	.st0{fill:url(#SVGID_1_);}
	.st1{fill:url(#SVGID_00000103949910442715293180000005903640067178621599_);}
	.st2{fill:url(#SVGID_00000183238051969160837860000002009234709692945845_);}
	.st3{fill:url(#SVGID_00000041981162719605697310000006536579965336454295_);}
	.st4{fill:url(#SVGID_00000062165990787269837580000013936416359673399974_);}
	.st5{fill:url(#SVGID_00000047045354788512982880000001986351737510829447_);}
	.st6{fill:url(#SVGID_00000076562734772021880850000004717755067997262983_);}
	.st7{fill:url(#SVGID_00000048490222570594472580000010866168855579931545_);}
	.st8{fill:#5927E3;}
	.st9{fill:#231F20;}
	.st10{fill:url(#SVGID_00000155147261107405796440000007393081716522759866_);}
	.st11{fill:#FFFFFF;}
</style>
<g>
	<g>
		<linearGradient id="SVGID_1_" gradientUnits="userSpaceOnUse" x1="696.7433" y1="554.8891" x2="630.6725" y2="550.9446">
			<stop  offset="0" style="stop-color:#5927E3"/>
			<stop  offset="0.3201" style="stop-color:#5827E1"/>
			<stop  offset="0.4924" style="stop-color:#5326D9"/>
			<stop  offset="0.6295" style="stop-color:#4B26CB"/>
			<stop  offset="0.7481" style="stop-color:#3F25B8"/>
			<stop  offset="0.8547" style="stop-color:#30239F"/>
			<stop  offset="0.9512" style="stop-color:#1E2280"/>
			<stop  offset="1" style="stop-color:#13216E"/>
		</linearGradient>
		<path class="st0" d="M713.23,581.43c16.88-16.88,16.88-44.49,0-61.36l-85.75-85.75v232.86L713.23,581.43z"/>
		<g>
			
				<linearGradient id="SVGID_00000031204241308743803650000013203232822673038476_" gradientUnits="userSpaceOnUse" x1="609.1213" y1="550.7555" x2="530.8863" y2="550.7555">
				<stop  offset="0" style="stop-color:#5927E3"/>
				<stop  offset="0.3201" style="stop-color:#5827E1"/>
				<stop  offset="0.4924" style="stop-color:#5326D9"/>
				<stop  offset="0.6295" style="stop-color:#4B26CB"/>
				<stop  offset="0.7481" style="stop-color:#3F25B8"/>
				<stop  offset="0.8547" style="stop-color:#30239F"/>
				<stop  offset="0.9512" style="stop-color:#1E2280"/>
				<stop  offset="1" style="stop-color:#13216E"/>
			</linearGradient>
			<path style="fill:url(#SVGID_00000031204241308743803650000013203232822673038476_);" d="M529.08,335.92v109.51
				c54.05,20.05,92.67,72.13,92.67,133.07c0,60.94-38.62,113.02-92.67,133.07v54.04l98.4-98.41V434.32L529.08,335.92z"/>
			
				<linearGradient id="SVGID_00000052105479120489851760000013701573876732766638_" gradientUnits="userSpaceOnUse" x1="609.1241" y1="578.4905" x2="530.8864" y2="578.4905">
				<stop  offset="0" style="stop-color:#5927E3"/>
				<stop  offset="0.3201" style="stop-color:#5827E1"/>
				<stop  offset="0.4924" style="stop-color:#5326D9"/>
				<stop  offset="0.6295" style="stop-color:#4B26CB"/>
				<stop  offset="0.7481" style="stop-color:#3F25B8"/>
				<stop  offset="0.8547" style="stop-color:#30239F"/>
				<stop  offset="0.9512" style="stop-color:#1E2280"/>
				<stop  offset="1" style="stop-color:#13216E"/>
			</linearGradient>
			<path style="fill:url(#SVGID_00000052105479120489851760000013701573876732766638_);" d="M566.53,578.49
				c0-29.52-14.85-55.62-37.45-71.27v142.54C551.68,634.11,566.53,608.01,566.53,578.49z"/>
		</g>
		<g>
			
				<linearGradient id="SVGID_00000028320586775806885990000008341226576981114303_" gradientUnits="userSpaceOnUse" x1="509.8508" y1="484.9412" x2="433.5807" y2="484.9412">
				<stop  offset="0" style="stop-color:#5927E3"/>
				<stop  offset="0.3201" style="stop-color:#5827E1"/>
				<stop  offset="0.4924" style="stop-color:#5326D9"/>
				<stop  offset="0.6295" style="stop-color:#4B26CB"/>
				<stop  offset="0.7481" style="stop-color:#3F25B8"/>
				<stop  offset="0.8547" style="stop-color:#30239F"/>
				<stop  offset="0.9512" style="stop-color:#1E2280"/>
				<stop  offset="1" style="stop-color:#13216E"/>
			</linearGradient>
			<path style="fill:url(#SVGID_00000028320586775806885990000008341226576981114303_);" d="M479.87,436.61
				c17.29,0,33.86,3.12,49.2,8.81V335.91l-18.52-18.52c-16.88-16.88-44.49-16.88-61.36,0l-18.52,18.52v313.86
				c13.99,9.68,30.94,15.38,49.2,15.38c18.26,0,35.22-5.69,49.2-15.38V507.22c-13.99-9.69-30.94-15.38-49.2-15.38
				c-15.25,0-27.61-12.36-27.61-27.61C452.26,448.98,464.62,436.61,479.87,436.61z"/>
			
				<linearGradient id="SVGID_00000115500390475338430180000012025585326014685582_" gradientUnits="userSpaceOnUse" x1="509.8508" y1="754.1665" x2="433.5807" y2="754.1665">
				<stop  offset="0" style="stop-color:#5927E3"/>
				<stop  offset="0.3201" style="stop-color:#5827E1"/>
				<stop  offset="0.4924" style="stop-color:#5326D9"/>
				<stop  offset="0.6295" style="stop-color:#4B26CB"/>
				<stop  offset="0.7481" style="stop-color:#3F25B8"/>
				<stop  offset="0.8547" style="stop-color:#30239F"/>
				<stop  offset="0.9512" style="stop-color:#1E2280"/>
				<stop  offset="1" style="stop-color:#13216E"/>
			</linearGradient>
			<path style="fill:url(#SVGID_00000115500390475338430180000012025585326014685582_);" d="M430.67,711.56v54.04l18.52,18.52
				c16.88,16.88,44.49,16.88,61.36,0l18.52-18.52v-54.04c-15.34,5.69-31.91,8.81-49.2,8.81
				C462.58,720.37,446.01,717.25,430.67,711.56z"/>
		</g>
		
			<linearGradient id="SVGID_00000097465969297262652920000002966923149797704836_" gradientUnits="userSpaceOnUse" x1="319.2021" y1="550.756" x2="230.4117" y2="550.756">
			<stop  offset="0" style="stop-color:#5927E3"/>
			<stop  offset="0.3201" style="stop-color:#5827E1"/>
			<stop  offset="0.4924" style="stop-color:#5326D9"/>
			<stop  offset="0.6295" style="stop-color:#4B26CB"/>
			<stop  offset="0.7481" style="stop-color:#3F25B8"/>
			<stop  offset="0.8547" style="stop-color:#30239F"/>
			<stop  offset="0.9512" style="stop-color:#1E2280"/>
			<stop  offset="1" style="stop-color:#13216E"/>
		</linearGradient>
		<path style="fill:url(#SVGID_00000097465969297262652920000002966923149797704836_);" d="M338,512.98v-84.39l-91.48,91.49
			c-16.88,16.88-16.88,44.49,0,61.36L338,672.92v-94.43V512.98z"/>
		<g>
			
				<linearGradient id="SVGID_00000070812925880353941960000016473642532990764435_" gradientUnits="userSpaceOnUse" x1="411.2394" y1="492.8404" x2="337.5978" y2="492.8404">
				<stop  offset="0" style="stop-color:#5927E3"/>
				<stop  offset="0.3201" style="stop-color:#5827E1"/>
				<stop  offset="0.4924" style="stop-color:#5326D9"/>
				<stop  offset="0.6295" style="stop-color:#4B26CB"/>
				<stop  offset="0.7481" style="stop-color:#3F25B8"/>
				<stop  offset="0.8547" style="stop-color:#30239F"/>
				<stop  offset="0.9512" style="stop-color:#1E2280"/>
				<stop  offset="1" style="stop-color:#13216E"/>
			</linearGradient>
			<path style="fill:url(#SVGID_00000070812925880353941960000016473642532990764435_);" d="M393.22,373.37v205.12
				c0,29.52,14.84,55.62,37.45,71.27V335.92L393.22,373.37z"/>
			
				<linearGradient id="SVGID_00000100346569977753940040000009904238969618328505_" gradientUnits="userSpaceOnUse" x1="411.2393" y1="672.0428" x2="337.5974" y2="672.0428">
				<stop  offset="0" style="stop-color:#5927E3"/>
				<stop  offset="0.3201" style="stop-color:#5827E1"/>
				<stop  offset="0.4924" style="stop-color:#5326D9"/>
				<stop  offset="0.6295" style="stop-color:#4B26CB"/>
				<stop  offset="0.7481" style="stop-color:#3F25B8"/>
				<stop  offset="0.8547" style="stop-color:#30239F"/>
				<stop  offset="0.9512" style="stop-color:#1E2280"/>
				<stop  offset="1" style="stop-color:#13216E"/>
			</linearGradient>
			<path style="fill:url(#SVGID_00000100346569977753940040000009904238969618328505_);" d="M338,578.49v94.43l92.67,92.67v-54.04
				C376.62,691.51,338,639.43,338,578.49z"/>
		</g>
	</g>
	<g>
		<path class="st8" d="M827.43,405.6h27.68v113.63h-27.68V405.6z"/>
		<path class="st8" d="M976.84,405.6v113.63h-27.68l-46.29-70.09v70.09h-27.68V405.6h27.68l46.29,70.41V405.6H976.84z"/>
		<path class="st8" d="M1074.28,405.6h29.3l-40.3,113.63h-34.64l-40.3-113.63h29.46l28.17,85.79L1074.28,405.6z"/>
		<path class="st8" d="M1184.68,427.78h-41.92v22.99h37.07v21.37h-37.07v24.93h41.92v22.18h-69.6V405.6h69.6V427.78z"/>
		<path class="st8" d="M1243.76,520.37c-24.44,0-43.54-12.14-44.35-35.12h29.46c0.81,8.74,6.31,12.95,14.08,12.95
			c8.09,0,13.27-4.05,13.27-10.68c0-21.04-56.82-9.71-56.49-50.02c0-21.53,17.64-33.51,41.44-33.51c24.77,0,41.44,12.3,42.57,33.99
			h-29.95c-0.49-7.28-5.67-11.65-13.11-11.82c-6.64-0.16-11.65,3.24-11.65,10.36c0,19.75,56.17,10.84,56.17,48.88
			C1285.2,504.5,1270.3,520.37,1243.76,520.37z"/>
		<path class="st8" d="M1296.04,405.6h87.89v22.18h-30.11v91.45h-27.68v-91.45h-30.11V405.6z"/>
		<path class="st8" d="M1397.86,405.6h27.68v113.63h-27.68V405.6z"/>
		<path class="st8" d="M1551.63,441.54h-30.59c-4.21-7.61-11.98-11.65-22.34-11.65c-17.8,0-29.62,12.63-29.62,32.37
			c0,21.04,11.98,33.34,31.89,33.34c13.76,0,23.31-7.28,27.52-20.07h-35.12v-20.4h60.21v25.74c-5.83,19.59-24.77,39.17-54.71,39.17
			c-33.99,0-57.95-23.79-57.95-57.79s23.79-57.95,57.79-57.95C1525.89,404.31,1545.64,418.23,1551.63,441.54z"/>
		<path class="st8" d="M1622.69,520.37c-32.21,0-58.43-24.12-58.43-58.27c0-34.15,26.22-58.11,58.43-58.11
			c32.37,0,58.11,23.96,58.11,58.11C1680.8,496.25,1654.9,520.37,1622.69,520.37z M1622.69,495.12c18.13,0,29.95-13.11,29.95-33.02
			c0-20.23-11.82-33.02-29.95-33.02c-18.45,0-30.11,12.79-30.11,33.02C1592.58,482.01,1604.24,495.12,1622.69,495.12z"/>
		<path class="st9" d="M880.36,697.53h-52.93V583.9h51.15c23.15,0,36.9,11.49,36.9,29.46c0,13.76-8.25,22.66-19.26,25.9
			c13.27,2.75,21.85,14.41,21.85,27.36C918.08,685.39,904.32,697.53,880.36,697.53z M873.24,606.07h-18.13v23.79h18.13
			c9.06,0,14.08-4.05,14.08-11.82S882.31,606.07,873.24,606.07z M875.18,650.1h-20.07v25.09h20.39c9.23,0,14.57-4.21,14.57-12.3
			C890.08,654.79,884.41,650.1,875.18,650.1z"/>
		<path class="st9" d="M1004.84,677.45h-42.41l-6.8,20.07h-28.97l41.11-113.63h32.05l41.11,113.63h-29.3L1004.84,677.45z
			 M983.64,614.49l-13.92,41.6h28L983.64,614.49z"/>
		<path class="st9" d="M1155.05,583.9v113.63h-27.68l-46.29-70.09v70.09h-27.68V583.9h27.68l46.29,70.41V583.9H1155.05z"/>
		<path class="st9" d="M1202.81,647.35v50.18h-27.68V583.9h27.68v49.85l37.88-49.85h32.54l-44.03,55.68l45.65,57.95h-33.83
			L1202.81,647.35z"/>
	</g>
	
		<linearGradient id="SVGID_00000063634463185536291490000013523736274632272773_" gradientUnits="userSpaceOnUse" x1="396.378" y1="315.4195" x2="331.9906" y2="315.4195">
		<stop  offset="0" style="stop-color:#5927E3"/>
		<stop  offset="0.3201" style="stop-color:#5827E1"/>
		<stop  offset="0.4924" style="stop-color:#5326D9"/>
		<stop  offset="0.6295" style="stop-color:#4B26CB"/>
		<stop  offset="0.7481" style="stop-color:#3F25B8"/>
		<stop  offset="0.8547" style="stop-color:#30239F"/>
		<stop  offset="0.9512" style="stop-color:#1E2280"/>
		<stop  offset="1" style="stop-color:#13216E"/>
	</linearGradient>
	<circle style="fill:url(#SVGID_00000063634463185536291490000013523736274632272773_);" cx="364.18" cy="315.42" r="32.19"/>
	<g>
		<g>
			<path class="st11" d="M480.69,521.12c15.93,7.15,31.86,14.29,47.79,21.44c2.09,0.94,3.22,2.67,3.08,4.73
				c-0.14,2.01-1.51,3.71-3.49,4.2c-0.58,0.15-1.2,0.16-1.8,0.16c-30.92,0.01-61.83-0.01-92.75,0.03c-2.74,0-4.4-1.25-5.33-3.7
				c0-0.61,0-1.21,0-1.82c0.49-1.67,1.46-2.89,3.09-3.62c15.94-7.13,31.87-14.28,47.8-21.42
				C479.61,521.12,480.15,521.12,480.69,521.12z"/>
			<path class="st11" d="M428.18,618.86c0.27-0.57,0.48-1.18,0.83-1.7c1.06-1.56,2.63-2.09,4.45-2.09c6.33,0.01,12.65,0,18.98,0
				c24.46,0,48.92,0,73.39,0.01c0.77,0,1.56,0.04,2.3,0.22c1.98,0.51,3.4,2.44,3.4,4.5c0,2.08-1.49,4.01-3.53,4.5
				c-0.58,0.14-1.2,0.19-1.8,0.19c-30.89,0.01-61.78,0-92.67,0.02c-2.77,0-4.5-1.26-5.35-3.84
				C428.18,620.07,428.18,619.47,428.18,618.86z"/>
			<path class="st11" d="M439.86,602.9c0-14.13,0-28.15,0-42.23c-0.53-0.06-1.06-0.09-1.58-0.18c-1.08-0.2-1.82-1.12-1.83-2.22
				c-0.01-1.06,0.66-1.98,1.69-2.22c0.45-0.11,0.93-0.16,1.4-0.16c26.89-0.01,53.77-0.01,80.66,0c0.3,0,0.61,0,0.9,0.04
				c1.33,0.21,2.21,1.15,2.19,2.35c-0.02,1.25-0.95,2.16-2.35,2.29c-0.33,0.03-0.66,0.05-1.06,0.07c0,14.06,0,28.07,0,42.25
				c0.42,0,0.84-0.02,1.26,0c2.53,0.11,4.5,2.16,4.52,4.66c0.01,2.46-1.89,4.49-4.38,4.67c-0.44,0.03-0.87,0.04-1.31,0.04
				c-26.75,0-53.5,0-80.25-0.01c-0.8,0-1.63-0.04-2.39-0.26c-2.16-0.63-3.53-2.83-3.22-4.98c0.33-2.31,2.13-3.99,4.41-4.11
				C438.94,602.88,439.37,602.9,439.86,602.9z M472.9,560.65c0,14.11,0,28.15,0,42.15c4.71,0,9.34,0,13.95,0c0-14.1,0-28.11,0-42.15
				C482.14,560.65,477.51,560.65,472.9,560.65z M496.34,560.66c0,14.08,0,28.1,0,42.14c4.7,0,9.35,0,13.98,0c0-14.1,0-28.11,0-42.14
				C505.63,560.66,501,560.66,496.34,560.66z M463.35,602.83c0-14.07,0-28.09,0-42.17c-4.67,0-9.3,0-13.92,0
				c0,14.09,0,28.13,0,42.17C454.11,602.83,458.7,602.83,463.35,602.83z"/>
		</g>
	</g>
</g>
<g>
</g>
<g>
</g>
<g>
</g>
<g>
</g>
<g>
</g>
<g>
</g>
</svg>
